<svg xmlns="http://www.w3.org/2000/svg" xmlns:xlink="http://www.w3.org/1999/xlink" width="100" zoomAndPan="magnify" viewBox="0 0 75 74.999997" height="100" preserveAspectRatio="xMidYMid meet" version="1.0"><defs><clipPath id="d39263387f"><path d="M 26.226562 18.871094 L 48.726562 18.871094 L 48.726562 39.421875 L 26.226562 39.421875 Z M 26.226562 18.871094 " clip-rule="nonzero"/></clipPath></defs><g clip-path="url(#d39263387f)"><path fill="#38b6ff" d="M 37.390625 29.664062 C 37.050781 29.664062 36.773438 29.386719 36.773438 29.042969 C 36.773438 28.703125 37.050781 28.425781 37.390625 28.425781 C 37.734375 28.425781 38.011719 28.703125 38.011719 29.042969 C 38.011719 29.386719 37.734375 29.664062 37.390625 29.664062 Z M 45.957031 21.800781 C 45.957031 21.800781 45.953125 21.800781 45.953125 21.800781 C 45.953125 22.199219 46.011719 22.617188 46.128906 23.0625 C 47.207031 23.964844 47.855469 25.113281 47.855469 26.359375 C 47.855469 27.773438 47.019531 29.066406 45.667969 30.011719 C 45.003906 30.476562 44.21875 30.859375 43.34375 31.128906 C 43.074219 29.75 42.167969 28.523438 40.84375 27.597656 C 39.296875 26.515625 37.167969 25.84375 34.828125 25.84375 C 34.019531 25.84375 33.242188 25.921875 32.5 26.070312 C 32.605469 24.769531 33.417969 23.589844 34.675781 22.707031 C 36.074219 21.730469 38.019531 21.125 40.171875 21.125 C 40.8125 21.125 41.433594 21.179688 42.03125 21.277344 C 42.066406 21.253906 42.101562 21.226562 42.140625 21.199219 C 42.472656 20.96875 42.820312 20.765625 43.179688 20.59375 C 43.199219 20.585938 43.214844 20.578125 43.230469 20.570312 C 43.324219 20.527344 43.417969 20.484375 43.515625 20.445312 C 44.445312 20.054688 45.453125 19.863281 46.542969 19.863281 C 46.191406 20.378906 45.996094 20.957031 45.960938 21.589844 C 45.957031 21.660156 45.957031 21.730469 45.957031 21.800781 Z M 29.042969 36.554688 C 29.042969 36.558594 29.042969 36.558594 29.046875 36.558594 C 29.046875 36.160156 28.988281 35.738281 28.871094 35.296875 C 27.792969 34.394531 27.144531 33.242188 27.144531 31.996094 C 27.144531 30.582031 27.980469 29.289062 29.332031 28.34375 C 29.996094 27.878906 30.78125 27.5 31.65625 27.226562 C 31.925781 28.609375 32.832031 29.835938 34.15625 30.761719 C 35.703125 31.84375 37.832031 32.511719 40.171875 32.511719 C 40.976562 32.511719 41.757812 32.433594 42.5 32.285156 C 42.394531 33.585938 41.582031 34.769531 40.324219 35.648438 C 38.921875 36.628906 36.980469 37.234375 34.828125 37.234375 C 34.1875 37.234375 33.5625 37.179688 32.96875 37.078125 C 32.933594 37.105469 32.898438 37.132812 32.859375 37.15625 C 32.527344 37.390625 32.179688 37.59375 31.820312 37.765625 C 31.800781 37.773438 31.785156 37.78125 31.769531 37.789062 C 31.675781 37.832031 31.582031 37.875 31.484375 37.914062 C 30.554688 38.300781 29.546875 38.496094 28.457031 38.492188 C 28.808594 37.976562 29.003906 37.402344 29.039062 36.765625 C 29.042969 36.699219 29.042969 36.628906 29.042969 36.554688 Z M 35.472656 28.425781 C 35.816406 28.425781 36.09375 28.703125 36.09375 29.042969 C 36.09375 29.386719 35.816406 29.664062 35.472656 29.664062 C 35.132812 29.664062 34.855469 29.386719 34.855469 29.042969 C 34.855469 28.703125 35.132812 28.425781 35.472656 28.425781 Z M 39.308594 29.664062 C 38.96875 29.664062 38.691406 29.386719 38.691406 29.042969 C 38.691406 28.703125 38.96875 28.425781 39.308594 28.425781 C 39.652344 28.425781 39.925781 28.703125 39.925781 29.042969 C 39.925781 29.386719 39.652344 29.664062 39.308594 29.664062 Z M 33.085938 38.023438 C 33.648438 38.105469 34.230469 38.148438 34.828125 38.148438 C 37.167969 38.148438 39.296875 37.480469 40.84375 36.398438 C 42.421875 35.296875 43.402344 33.765625 43.425781 32.058594 C 44.464844 31.753906 45.40625 31.3125 46.191406 30.761719 C 47.785156 29.644531 48.773438 28.089844 48.773438 26.359375 C 48.773438 24.933594 48.101562 23.625 46.96875 22.582031 C 46.96875 22.574219 46.96875 22.570312 46.964844 22.5625 C 46.84375 21.984375 46.832031 21.457031 46.988281 20.988281 C 47.136719 20.523438 47.457031 20.097656 47.988281 19.707031 C 48.195312 19.554688 48.238281 19.269531 48.089844 19.066406 C 47.992188 18.933594 47.832031 18.867188 47.679688 18.882812 C 46.257812 18.941406 45.113281 19.058594 44.179688 19.28125 C 43.234375 19.507812 42.503906 19.839844 41.914062 20.332031 C 41.351562 20.25 40.769531 20.207031 40.171875 20.207031 C 37.832031 20.207031 35.703125 20.875 34.15625 21.960938 C 32.578125 23.0625 31.597656 24.59375 31.574219 26.296875 C 30.535156 26.601562 29.597656 27.046875 28.808594 27.597656 C 27.214844 28.710938 26.226562 30.265625 26.226562 31.996094 C 26.226562 33.425781 26.898438 34.734375 28.03125 35.773438 C 28.03125 35.78125 28.03125 35.789062 28.035156 35.796875 C 28.15625 36.371094 28.167969 36.898438 28.011719 37.367188 C 27.863281 37.832031 27.542969 38.257812 27.011719 38.652344 C 26.808594 38.800781 26.761719 39.085938 26.910156 39.289062 C 27.011719 39.425781 27.167969 39.488281 27.320312 39.476562 C 28.742188 39.414062 29.886719 39.296875 30.820312 39.074219 C 31.765625 38.847656 32.5 38.515625 33.085938 38.023438 Z M 33.085938 38.023438 " fill-opacity="1" fill-rule="evenodd"/></g><path fill="#38b6ff" d="M 23.148438 44.445312 C 23.148438 43.683594 23.414062 43.207031 24.207031 43.207031 C 24.492188 43.207031 24.722656 43.277344 24.941406 43.417969 L 25.03125 43.472656 C 25.144531 43.542969 25.207031 43.605469 25.410156 43.605469 C 25.746094 43.605469 25.996094 43.355469 25.996094 43.074219 C 25.996094 42.5625 25.101562 42.128906 24.164062 42.128906 C 22.617188 42.128906 21.910156 43.046875 21.910156 44.445312 L 21.910156 46.195312 C 21.910156 47.59375 22.617188 48.511719 24.164062 48.511719 C 25.101562 48.511719 25.996094 48.078125 25.996094 47.566406 C 25.996094 47.28125 25.746094 47.035156 25.410156 47.035156 C 25.207031 47.035156 25.144531 47.097656 25.03125 47.167969 L 24.941406 47.21875 C 24.722656 47.363281 24.492188 47.433594 24.207031 47.433594 C 23.414062 47.433594 23.148438 46.957031 23.148438 46.195312 Z M 23.148438 44.445312 " fill-opacity="1" fill-rule="nonzero"/><path fill="#38b6ff" d="M 27.992188 45.160156 C 28.195312 44.964844 28.503906 44.867188 28.753906 44.867188 C 29.113281 44.867188 29.257812 45.035156 29.257812 45.371094 L 29.257812 47.953125 C 29.257812 48.265625 29.523438 48.503906 29.867188 48.503906 C 30.195312 48.503906 30.476562 48.265625 30.476562 47.953125 L 30.476562 45.453125 C 30.476562 44.542969 29.964844 43.90625 28.832031 43.90625 C 28.53125 43.90625 28.238281 43.992188 27.992188 44.144531 L 27.992188 42.5625 C 27.992188 42.25 27.726562 42.011719 27.382812 42.011719 C 27.039062 42.011719 26.78125 42.277344 26.78125 42.5625 L 26.78125 47.953125 C 26.78125 48.265625 27.046875 48.503906 27.390625 48.503906 C 27.734375 48.503906 27.992188 48.265625 27.992188 47.953125 Z M 27.992188 45.160156 " fill-opacity="1" fill-rule="nonzero"/><path fill="#38b6ff" d="M 35.03125 45.734375 C 35.03125 44.542969 34.507812 43.90625 33.226562 43.90625 C 32.492188 43.90625 31.714844 44.117188 31.714844 44.640625 C 31.714844 44.859375 31.855469 45.152344 32.226562 45.152344 C 32.394531 45.152344 32.492188 45.089844 32.5625 45.0625 C 32.738281 44.984375 32.890625 44.921875 33.136719 44.921875 C 33.589844 44.921875 33.808594 45.117188 33.808594 45.53125 L 33.808594 45.816406 C 33.578125 45.742188 33.351562 45.726562 33.109375 45.726562 C 31.945312 45.726562 31.359375 46.175781 31.359375 47.078125 L 31.359375 47.105469 C 31.359375 47.945312 31.910156 48.503906 32.933594 48.503906 C 33.429688 48.503906 33.800781 48.371094 34.128906 48.105469 C 34.332031 48.386719 34.550781 48.476562 34.878906 48.476562 C 35.347656 48.476562 35.515625 48.300781 35.515625 48.015625 C 35.515625 47.832031 35.445312 47.734375 35.3125 47.679688 C 35.164062 47.617188 35.03125 47.644531 35.03125 47.378906 Z M 33.179688 46.582031 C 33.359375 46.582031 33.589844 46.609375 33.808594 46.65625 L 33.808594 47.292969 C 33.578125 47.46875 33.351562 47.519531 33.121094 47.519531 C 32.738281 47.519531 32.570312 47.40625 32.570312 47.113281 L 32.570312 47.085938 C 32.570312 46.824219 32.667969 46.582031 33.179688 46.582031 Z M 33.179688 46.582031 " fill-opacity="1" fill-rule="nonzero"/><path fill="#38b6ff" d="M 36.230469 46.601562 C 36.230469 47.804688 36.585938 48.476562 37.953125 48.476562 C 38.398438 48.476562 38.804688 48.40625 38.804688 47.890625 C 38.804688 47.566406 38.636719 47.414062 38.078125 47.414062 C 38.0625 47.414062 38.007812 47.425781 37.929688 47.425781 C 37.503906 47.425781 37.449219 47.195312 37.449219 46.539062 L 37.449219 45.203125 L 38.105469 45.203125 C 38.433594 45.203125 38.6875 44.984375 38.6875 44.683594 C 38.6875 44.382812 38.433594 44.152344 38.105469 44.152344 L 37.449219 44.152344 L 37.449219 43.171875 C 37.449219 42.878906 37.230469 42.632812 36.839844 42.632812 C 36.453125 42.632812 36.230469 42.871094 36.230469 43.171875 Z M 36.230469 46.601562 " fill-opacity="1" fill-rule="nonzero"/><path fill="#38b6ff" d="M 40.5 47.210938 L 42.386719 47.210938 L 42.695312 48.105469 C 42.78125 48.351562 43.066406 48.519531 43.296875 48.519531 C 43.65625 48.519531 43.933594 48.289062 43.933594 47.953125 C 43.933594 47.910156 43.921875 47.804688 43.90625 47.761719 L 42.179688 42.730469 C 42.058594 42.375 41.882812 42.128906 41.457031 42.128906 C 41.03125 42.128906 40.855469 42.382812 40.742188 42.730469 L 39.015625 47.761719 C 39 47.804688 38.988281 47.910156 38.988281 47.953125 C 38.988281 48.289062 39.28125 48.519531 39.625 48.519531 C 39.839844 48.519531 40.121094 48.359375 40.210938 48.105469 Z M 42.066406 46.203125 L 40.828125 46.203125 L 41.296875 44.691406 C 41.375 44.433594 41.421875 44.097656 41.457031 43.824219 C 41.492188 44.097656 41.535156 44.433594 41.617188 44.691406 Z M 42.066406 46.203125 " fill-opacity="1" fill-rule="nonzero"/><path fill="#38b6ff" d="M 46.644531 48.492188 C 47.917969 48.492188 48.335938 47.707031 48.335938 46.664062 L 48.335938 45.636719 C 48.335938 44.613281 47.742188 43.90625 46.726562 43.90625 C 46.257812 43.90625 45.902344 44.054688 45.480469 44.292969 C 45.355469 44.144531 45.203125 44.046875 45.019531 44.046875 C 44.734375 44.046875 44.433594 44.257812 44.433594 44.585938 C 44.433594 44.710938 44.488281 44.78125 44.558594 44.867188 C 44.628906 44.976562 44.65625 45.082031 44.65625 45.285156 L 44.65625 49.777344 C 44.65625 50.066406 44.878906 50.316406 45.265625 50.316406 C 45.65625 50.316406 45.875 50.078125 45.875 49.777344 L 45.875 48.316406 C 46.195312 48.46875 46.40625 48.492188 46.644531 48.492188 Z M 45.875 45.285156 C 45.875 45.230469 45.867188 45.179688 45.859375 45.117188 C 46.132812 44.992188 46.355469 44.929688 46.539062 44.929688 C 46.917969 44.929688 47.113281 45.179688 47.113281 45.636719 L 47.113281 46.664062 C 47.113281 47.21875 46.957031 47.484375 46.523438 47.484375 C 46.363281 47.484375 46.140625 47.449219 45.875 47.371094 Z M 45.875 45.285156 " fill-opacity="1" fill-rule="nonzero"/><path fill="#38b6ff" d="M 51.3125 48.492188 C 52.585938 48.492188 53.003906 47.707031 53.003906 46.664062 L 53.003906 45.636719 C 53.003906 44.613281 52.410156 43.90625 51.394531 43.90625 C 50.925781 43.90625 50.570312 44.054688 50.148438 44.292969 C 50.023438 44.144531 49.871094 44.046875 49.6875 44.046875 C 49.402344 44.046875 49.101562 44.257812 49.101562 44.585938 C 49.101562 44.710938 49.15625 44.78125 49.226562 44.867188 C 49.296875 44.976562 49.324219 45.082031 49.324219 45.285156 L 49.324219 49.777344 C 49.324219 50.066406 49.546875 50.316406 49.933594 50.316406 C 50.324219 50.316406 50.542969 50.078125 50.542969 49.777344 L 50.542969 48.316406 C 50.863281 48.46875 51.074219 48.492188 51.3125 48.492188 Z M 50.542969 45.285156 C 50.542969 45.230469 50.535156 45.179688 50.527344 45.117188 C 50.800781 44.992188 51.023438 44.929688 51.207031 44.929688 C 51.585938 44.929688 51.78125 45.179688 51.78125 45.636719 L 51.78125 46.664062 C 51.78125 47.21875 51.625 47.484375 51.191406 47.484375 C 51.03125 47.484375 50.808594 47.449219 50.542969 47.371094 Z M 50.542969 45.285156 " fill-opacity="1" fill-rule="nonzero"/></svg>