<svg xmlns="http://www.w3.org/2000/svg" xmlns:xlink="http://www.w3.org/1999/xlink" width="50" zoomAndPan="magnify" viewBox="0 0 37.5 37.499999" height="50" preserveAspectRatio="xMidYMid meet" version="1.0"><defs><clipPath id="c0f8c13436"><path d="M 8.152344 5.382812 L 29.246094 5.382812 L 29.246094 24.648438 L 8.152344 24.648438 Z M 8.152344 5.382812 " clip-rule="nonzero"/></clipPath></defs><g clip-path="url(#c0f8c13436)"><path fill="#38b6ff" d="M 18.621094 15.5 C 18.300781 15.5 18.039062 15.238281 18.039062 14.917969 C 18.039062 14.597656 18.300781 14.339844 18.621094 14.339844 C 18.941406 14.339844 19.199219 14.597656 19.199219 14.917969 C 19.199219 15.238281 18.941406 15.5 18.621094 15.5 Z M 26.648438 8.128906 C 26.644531 8.5 26.699219 8.894531 26.8125 9.308594 C 27.824219 10.15625 28.429688 11.234375 28.429688 12.402344 C 28.429688 13.730469 27.644531 14.941406 26.378906 15.828125 C 25.757812 16.261719 25.019531 16.621094 24.199219 16.875 C 23.945312 15.582031 23.097656 14.429688 21.855469 13.5625 C 20.40625 12.546875 18.410156 11.917969 16.214844 11.917969 C 15.460938 11.917969 14.730469 11.992188 14.035156 12.132812 C 14.132812 10.914062 14.894531 9.804688 16.074219 8.980469 C 17.386719 8.0625 19.207031 7.496094 21.226562 7.496094 C 21.828125 7.496094 22.410156 7.546875 22.96875 7.640625 C 23 7.613281 23.035156 7.589844 23.070312 7.566406 C 23.382812 7.347656 23.710938 7.160156 24.046875 6.996094 C 24.0625 6.988281 24.078125 6.980469 24.09375 6.972656 C 24.179688 6.933594 24.269531 6.894531 24.363281 6.855469 C 25.230469 6.492188 26.179688 6.3125 27.199219 6.3125 C 26.867188 6.796875 26.6875 7.335938 26.652344 7.933594 C 26.648438 7.996094 26.648438 8.0625 26.648438 8.128906 Z M 10.792969 21.960938 C 10.792969 21.960938 10.792969 21.960938 10.796875 21.964844 C 10.796875 21.589844 10.742188 21.195312 10.628906 20.78125 C 9.621094 19.933594 9.011719 18.855469 9.011719 17.6875 C 9.011719 16.363281 9.796875 15.152344 11.0625 14.265625 C 11.683594 13.828125 12.421875 13.472656 13.242188 13.21875 C 13.496094 14.511719 14.34375 15.660156 15.585938 16.53125 C 17.035156 17.542969 19.03125 18.171875 21.226562 18.171875 C 21.980469 18.171875 22.714844 18.097656 23.40625 17.960938 C 23.308594 19.179688 22.546875 20.285156 21.367188 21.113281 C 20.054688 22.03125 18.234375 22.597656 16.214844 22.597656 C 15.613281 22.597656 15.03125 22.546875 14.472656 22.453125 C 14.441406 22.476562 14.40625 22.5 14.371094 22.523438 C 14.058594 22.742188 13.730469 22.933594 13.394531 23.09375 C 13.378906 23.101562 13.363281 23.109375 13.347656 23.117188 C 13.261719 23.15625 13.171875 23.199219 13.078125 23.234375 C 12.210938 23.597656 11.265625 23.777344 10.242188 23.777344 C 10.574219 23.296875 10.757812 22.753906 10.789062 22.160156 C 10.792969 22.09375 10.792969 22.027344 10.792969 21.960938 Z M 16.820312 14.339844 C 17.140625 14.339844 17.402344 14.597656 17.402344 14.917969 C 17.402344 15.238281 17.140625 15.5 16.820312 15.5 C 16.5 15.5 16.242188 15.238281 16.242188 14.917969 C 16.242188 14.597656 16.5 14.339844 16.820312 14.339844 Z M 20.417969 15.5 C 20.097656 15.5 19.835938 15.238281 19.835938 14.917969 C 19.835938 14.597656 20.097656 14.339844 20.417969 14.339844 C 20.738281 14.339844 20.996094 14.597656 20.996094 14.917969 C 20.996094 15.238281 20.738281 15.5 20.417969 15.5 Z M 14.582031 23.335938 C 15.109375 23.414062 15.65625 23.457031 16.214844 23.457031 C 18.410156 23.457031 20.40625 22.828125 21.855469 21.8125 C 23.335938 20.78125 24.253906 19.34375 24.277344 17.746094 C 25.253906 17.460938 26.132812 17.046875 26.871094 16.527344 C 28.363281 15.484375 29.289062 14.027344 29.289062 12.402344 C 29.289062 11.0625 28.660156 9.839844 27.597656 8.863281 C 27.597656 8.855469 27.597656 8.847656 27.597656 8.84375 C 27.480469 8.300781 27.46875 7.808594 27.613281 7.367188 C 27.757812 6.933594 28.054688 6.53125 28.554688 6.164062 C 28.746094 6.023438 28.789062 5.757812 28.648438 5.566406 C 28.554688 5.441406 28.410156 5.378906 28.265625 5.390625 C 26.933594 5.449219 25.859375 5.558594 24.984375 5.769531 C 24.097656 5.980469 23.410156 6.292969 22.859375 6.753906 C 22.332031 6.675781 21.785156 6.632812 21.226562 6.632812 C 19.03125 6.632812 17.035156 7.261719 15.585938 8.277344 C 14.109375 9.3125 13.1875 10.746094 13.164062 12.34375 C 12.191406 12.628906 11.3125 13.046875 10.574219 13.5625 C 9.078125 14.609375 8.152344 16.066406 8.152344 17.6875 C 8.152344 19.027344 8.78125 20.253906 9.84375 21.226562 C 9.84375 21.234375 9.84375 21.242188 9.847656 21.25 C 9.960938 21.789062 9.972656 22.28125 9.828125 22.722656 C 9.6875 23.15625 9.386719 23.558594 8.886719 23.925781 C 8.695312 24.066406 8.65625 24.335938 8.792969 24.527344 C 8.886719 24.652344 9.035156 24.710938 9.179688 24.699219 C 10.511719 24.640625 11.582031 24.53125 12.460938 24.324219 C 13.34375 24.109375 14.03125 23.796875 14.582031 23.335938 Z M 14.582031 23.335938 " fill-opacity="1" fill-rule="evenodd"/></g><path fill="#38b6ff" d="M 5.265625 29.355469 C 5.265625 28.644531 5.515625 28.195312 6.261719 28.195312 C 6.523438 28.195312 6.742188 28.261719 6.949219 28.394531 L 7.03125 28.445312 C 7.136719 28.511719 7.195312 28.570312 7.386719 28.570312 C 7.703125 28.570312 7.933594 28.335938 7.933594 28.070312 C 7.933594 27.589844 7.097656 27.183594 6.21875 27.183594 C 4.765625 27.183594 4.105469 28.046875 4.105469 29.355469 L 4.105469 30.996094 C 4.105469 32.308594 4.765625 33.171875 6.21875 33.171875 C 7.097656 33.171875 7.933594 32.765625 7.933594 32.285156 C 7.933594 32.015625 7.703125 31.785156 7.386719 31.785156 C 7.195312 31.785156 7.136719 31.84375 7.03125 31.910156 L 6.949219 31.960938 C 6.742188 32.09375 6.523438 32.160156 6.261719 32.160156 C 5.515625 32.160156 5.265625 31.710938 5.265625 30.996094 Z M 5.265625 29.355469 " fill-opacity="1" fill-rule="nonzero"/><path fill="#38b6ff" d="M 9.808594 30.027344 C 9.996094 29.847656 10.289062 29.753906 10.519531 29.753906 C 10.859375 29.753906 10.992188 29.914062 10.992188 30.226562 L 10.992188 32.648438 C 10.992188 32.9375 11.242188 33.160156 11.5625 33.160156 C 11.871094 33.160156 12.136719 32.9375 12.136719 32.648438 L 12.136719 30.300781 C 12.136719 29.449219 11.65625 28.851562 10.59375 28.851562 C 10.3125 28.851562 10.039062 28.933594 9.808594 29.074219 L 9.808594 27.589844 C 9.808594 27.300781 9.558594 27.078125 9.234375 27.078125 C 8.914062 27.078125 8.671875 27.328125 8.671875 27.589844 L 8.671875 32.648438 C 8.671875 32.9375 8.921875 33.160156 9.242188 33.160156 C 9.566406 33.160156 9.808594 32.9375 9.808594 32.648438 Z M 9.808594 30.027344 " fill-opacity="1" fill-rule="nonzero"/><path fill="#38b6ff" d="M 16.40625 30.566406 C 16.40625 29.449219 15.914062 28.851562 14.714844 28.851562 C 14.027344 28.851562 13.296875 29.050781 13.296875 29.539062 C 13.296875 29.746094 13.429688 30.019531 13.777344 30.019531 C 13.933594 30.019531 14.027344 29.960938 14.089844 29.9375 C 14.257812 29.863281 14.398438 29.804688 14.628906 29.804688 C 15.054688 29.804688 15.261719 29.988281 15.261719 30.375 L 15.261719 30.640625 C 15.046875 30.574219 14.828125 30.558594 14.605469 30.558594 C 13.511719 30.558594 12.964844 30.980469 12.964844 31.828125 L 12.964844 31.851562 C 12.964844 32.640625 13.480469 33.160156 14.441406 33.160156 C 14.902344 33.160156 15.253906 33.035156 15.558594 32.789062 C 15.75 33.054688 15.957031 33.136719 16.261719 33.136719 C 16.703125 33.136719 16.859375 32.972656 16.859375 32.707031 C 16.859375 32.53125 16.792969 32.441406 16.667969 32.390625 C 16.527344 32.332031 16.40625 32.355469 16.40625 32.109375 Z M 14.671875 31.363281 C 14.839844 31.363281 15.054688 31.386719 15.261719 31.429688 L 15.261719 32.027344 C 15.046875 32.191406 14.828125 32.242188 14.613281 32.242188 C 14.257812 32.242188 14.101562 32.132812 14.101562 31.859375 L 14.101562 31.835938 C 14.101562 31.585938 14.191406 31.363281 14.671875 31.363281 Z M 14.671875 31.363281 " fill-opacity="1" fill-rule="nonzero"/><path fill="#38b6ff" d="M 17.53125 31.378906 C 17.53125 32.507812 17.863281 33.136719 19.148438 33.136719 C 19.5625 33.136719 19.945312 33.070312 19.945312 32.589844 C 19.945312 32.285156 19.785156 32.140625 19.265625 32.140625 C 19.246094 32.140625 19.199219 32.152344 19.121094 32.152344 C 18.726562 32.152344 18.675781 31.933594 18.675781 31.320312 L 18.675781 30.070312 L 19.289062 30.070312 C 19.59375 30.070312 19.835938 29.863281 19.835938 29.582031 C 19.835938 29.296875 19.59375 29.082031 19.289062 29.082031 L 18.675781 29.082031 L 18.675781 28.164062 C 18.675781 27.890625 18.46875 27.65625 18.101562 27.65625 C 17.738281 27.65625 17.53125 27.882812 17.53125 28.164062 Z M 17.53125 31.378906 " fill-opacity="1" fill-rule="nonzero"/><path fill="#38b6ff" d="M 21.535156 31.953125 L 23.300781 31.953125 L 23.589844 32.789062 C 23.671875 33.019531 23.9375 33.179688 24.152344 33.179688 C 24.492188 33.179688 24.75 32.964844 24.75 32.648438 C 24.75 32.605469 24.742188 32.507812 24.726562 32.464844 L 23.109375 27.75 C 22.992188 27.417969 22.828125 27.183594 22.429688 27.183594 C 22.03125 27.183594 21.867188 27.425781 21.757812 27.75 L 20.140625 32.464844 C 20.125 32.507812 20.117188 32.605469 20.117188 32.648438 C 20.117188 32.964844 20.390625 33.179688 20.714844 33.179688 C 20.914062 33.179688 21.179688 33.027344 21.261719 32.789062 Z M 23 31.007812 L 21.839844 31.007812 L 22.28125 29.589844 C 22.355469 29.347656 22.398438 29.035156 22.429688 28.777344 C 22.464844 29.035156 22.503906 29.347656 22.578125 29.589844 Z M 23 31.007812 " fill-opacity="1" fill-rule="nonzero"/><path fill="#38b6ff" d="M 27.296875 33.152344 C 28.488281 33.152344 28.878906 32.414062 28.878906 31.4375 L 28.878906 30.476562 C 28.878906 29.515625 28.324219 28.851562 27.371094 28.851562 C 26.929688 28.851562 26.597656 28.992188 26.199219 29.214844 C 26.085938 29.074219 25.945312 28.984375 25.769531 28.984375 C 25.503906 28.984375 25.222656 29.183594 25.222656 29.488281 C 25.222656 29.605469 25.273438 29.671875 25.339844 29.753906 C 25.40625 29.855469 25.429688 29.953125 25.429688 30.144531 L 25.429688 34.355469 C 25.429688 34.628906 25.636719 34.859375 26 34.859375 C 26.367188 34.859375 26.574219 34.636719 26.574219 34.355469 L 26.574219 32.988281 C 26.871094 33.128906 27.070312 33.152344 27.296875 33.152344 Z M 26.574219 30.144531 C 26.574219 30.09375 26.566406 30.046875 26.558594 29.988281 C 26.8125 29.871094 27.019531 29.8125 27.195312 29.8125 C 27.550781 29.8125 27.734375 30.046875 27.734375 30.476562 L 27.734375 31.4375 C 27.734375 31.960938 27.585938 32.207031 27.179688 32.207031 C 27.03125 32.207031 26.824219 32.175781 26.574219 32.101562 Z M 26.574219 30.144531 " fill-opacity="1" fill-rule="nonzero"/><path fill="#38b6ff" d="M 31.671875 33.152344 C 32.863281 33.152344 33.253906 32.414062 33.253906 31.4375 L 33.253906 30.476562 C 33.253906 29.515625 32.699219 28.851562 31.746094 28.851562 C 31.308594 28.851562 30.976562 28.992188 30.578125 29.214844 C 30.460938 29.074219 30.320312 28.984375 30.144531 28.984375 C 29.878906 28.984375 29.597656 29.183594 29.597656 29.488281 C 29.597656 29.605469 29.648438 29.671875 29.714844 29.753906 C 29.78125 29.855469 29.804688 29.953125 29.804688 30.144531 L 29.804688 34.355469 C 29.804688 34.628906 30.011719 34.859375 30.378906 34.859375 C 30.742188 34.859375 30.949219 34.636719 30.949219 34.355469 L 30.949219 32.988281 C 31.25 33.128906 31.449219 33.152344 31.671875 33.152344 Z M 30.949219 30.144531 C 30.949219 30.09375 30.941406 30.046875 30.933594 29.988281 C 31.191406 29.871094 31.398438 29.8125 31.570312 29.8125 C 31.929688 29.8125 32.109375 30.046875 32.109375 30.476562 L 32.109375 31.4375 C 32.109375 31.960938 31.960938 32.207031 31.554688 32.207031 C 31.40625 32.207031 31.199219 32.175781 30.949219 32.101562 Z M 30.949219 30.144531 " fill-opacity="1" fill-rule="nonzero"/></svg>