<svg xmlns="http://www.w3.org/2000/svg" xmlns:xlink="http://www.w3.org/1999/xlink" width="100" zoomAndPan="magnify" viewBox="0 0 75 74.999997" height="100" preserveAspectRatio="xMidYMid meet" version="1.0"><defs><g/><clipPath id="b46b73ace0"><path d="M 26.226562 18.871094 L 48.726562 18.871094 L 48.726562 39.121094 L 26.226562 39.121094 Z M 26.226562 18.871094 " clip-rule="nonzero"/></clipPath></defs><g clip-path="url(#b46b73ace0)"><path fill="#ffffff" d="M 37.390625 29.660156 C 37.050781 29.660156 36.773438 29.382812 36.773438 29.042969 C 36.773438 28.703125 37.050781 28.425781 37.390625 28.425781 C 37.734375 28.425781 38.011719 28.703125 38.011719 29.042969 C 38.011719 29.382812 37.734375 29.660156 37.390625 29.660156 Z M 45.957031 21.800781 C 45.957031 21.800781 45.953125 21.800781 45.953125 21.796875 C 45.953125 22.195312 46.011719 22.617188 46.128906 23.058594 C 47.207031 23.960938 47.855469 25.113281 47.855469 26.359375 C 47.855469 27.773438 47.019531 29.066406 45.667969 30.011719 C 45.003906 30.476562 44.21875 30.855469 43.34375 31.128906 C 43.074219 29.75 42.167969 28.519531 40.84375 27.59375 C 39.296875 26.511719 37.167969 25.84375 34.828125 25.84375 C 34.019531 25.84375 33.242188 25.921875 32.5 26.070312 C 32.605469 24.769531 33.417969 23.585938 34.675781 22.707031 C 36.074219 21.726562 38.019531 21.125 40.171875 21.125 C 40.8125 21.125 41.433594 21.175781 42.03125 21.277344 C 42.066406 21.25 42.101562 21.226562 42.140625 21.199219 C 42.472656 20.96875 42.820312 20.765625 43.179688 20.59375 C 43.199219 20.585938 43.214844 20.578125 43.230469 20.570312 C 43.324219 20.523438 43.417969 20.480469 43.515625 20.441406 C 44.445312 20.054688 45.453125 19.863281 46.542969 19.863281 C 46.191406 20.378906 45.996094 20.953125 45.960938 21.589844 C 45.957031 21.660156 45.957031 21.730469 45.957031 21.800781 Z M 29.042969 36.554688 C 29.042969 36.554688 29.042969 36.554688 29.046875 36.558594 C 29.046875 36.160156 28.988281 35.738281 28.871094 35.296875 C 27.792969 34.394531 27.144531 33.242188 27.144531 31.996094 C 27.144531 30.582031 27.980469 29.289062 29.332031 28.34375 C 29.996094 27.878906 30.78125 27.5 31.65625 27.226562 C 31.925781 28.605469 32.832031 29.835938 34.15625 30.761719 C 35.703125 31.84375 37.832031 32.511719 40.171875 32.511719 C 40.976562 32.511719 41.757812 32.433594 42.5 32.285156 C 42.394531 33.585938 41.582031 34.769531 40.324219 35.648438 C 38.921875 36.628906 36.980469 37.230469 34.828125 37.230469 C 34.1875 37.230469 33.5625 37.179688 32.96875 37.078125 C 32.933594 37.105469 32.898438 37.128906 32.859375 37.15625 C 32.527344 37.386719 32.179688 37.589844 31.820312 37.761719 C 31.800781 37.769531 31.785156 37.777344 31.769531 37.785156 C 31.675781 37.832031 31.582031 37.875 31.484375 37.914062 C 30.554688 38.300781 29.546875 38.492188 28.457031 38.492188 C 28.808594 37.976562 29.003906 37.402344 29.039062 36.765625 C 29.042969 36.695312 29.042969 36.625 29.042969 36.554688 Z M 35.472656 28.425781 C 35.816406 28.425781 36.09375 28.699219 36.09375 29.042969 C 36.09375 29.382812 35.816406 29.660156 35.472656 29.660156 C 35.132812 29.660156 34.855469 29.382812 34.855469 29.042969 C 34.855469 28.699219 35.132812 28.425781 35.472656 28.425781 Z M 39.308594 29.660156 C 38.96875 29.660156 38.691406 29.382812 38.691406 29.042969 C 38.691406 28.699219 38.96875 28.425781 39.308594 28.425781 C 39.652344 28.425781 39.925781 28.699219 39.925781 29.042969 C 39.925781 29.382812 39.652344 29.660156 39.308594 29.660156 Z M 33.085938 38.023438 C 33.648438 38.105469 34.230469 38.148438 34.828125 38.148438 C 37.167969 38.148438 39.296875 37.480469 40.84375 36.398438 C 42.421875 35.292969 43.402344 33.761719 43.425781 32.058594 C 44.464844 31.753906 45.40625 31.3125 46.191406 30.761719 C 47.785156 29.644531 48.773438 28.089844 48.773438 26.359375 C 48.773438 24.929688 48.101562 23.621094 46.96875 22.582031 C 46.96875 22.574219 46.96875 22.566406 46.964844 22.5625 C 46.84375 21.984375 46.832031 21.457031 46.988281 20.988281 C 47.136719 20.523438 47.457031 20.097656 47.988281 19.703125 C 48.195312 19.554688 48.238281 19.269531 48.089844 19.066406 C 47.992188 18.929688 47.832031 18.867188 47.679688 18.878906 C 46.257812 18.941406 45.113281 19.058594 44.179688 19.28125 C 43.234375 19.507812 42.503906 19.839844 41.914062 20.332031 C 41.351562 20.25 40.769531 20.207031 40.171875 20.207031 C 37.832031 20.207031 35.703125 20.875 34.15625 21.957031 C 32.578125 23.058594 31.597656 24.59375 31.574219 26.296875 C 30.535156 26.601562 29.597656 27.042969 28.808594 27.59375 C 27.214844 28.710938 26.226562 30.265625 26.226562 31.996094 C 26.226562 33.421875 26.898438 34.730469 28.03125 35.773438 C 28.03125 35.78125 28.03125 35.785156 28.035156 35.792969 C 28.15625 36.371094 28.167969 36.898438 28.011719 37.367188 C 27.863281 37.832031 27.542969 38.257812 27.011719 38.648438 C 26.808594 38.800781 26.761719 39.085938 26.910156 39.289062 C 27.011719 39.421875 27.167969 39.488281 27.320312 39.472656 C 28.742188 39.414062 29.886719 39.296875 30.820312 39.074219 C 31.765625 38.847656 32.5 38.515625 33.085938 38.023438 Z M 33.085938 38.023438 " fill-opacity="1" fill-rule="evenodd"/></g><g fill="#ffffff" fill-opacity="1"><g transform="translate(21.59971, 48.440854)"><g><path d="M 1.546875 -3.996094 C 1.546875 -4.757812 1.8125 -5.234375 2.609375 -5.234375 C 2.890625 -5.234375 3.121094 -5.164062 3.34375 -5.023438 L 3.429688 -4.96875 C 3.546875 -4.898438 3.605469 -4.835938 3.8125 -4.835938 C 4.148438 -4.835938 4.394531 -5.082031 4.394531 -5.367188 C 4.394531 -5.878906 3.5 -6.3125 2.5625 -6.3125 C 1.015625 -6.3125 0.308594 -5.394531 0.308594 -3.996094 L 0.308594 -2.246094 C 0.308594 -0.847656 1.015625 0.0703125 2.5625 0.0703125 C 3.5 0.0703125 4.394531 -0.363281 4.394531 -0.875 C 4.394531 -1.160156 4.148438 -1.40625 3.8125 -1.40625 C 3.605469 -1.40625 3.546875 -1.34375 3.429688 -1.273438 L 3.34375 -1.21875 C 3.121094 -1.078125 2.890625 -1.007812 2.609375 -1.007812 C 1.8125 -1.007812 1.546875 -1.484375 1.546875 -2.246094 Z M 1.546875 -3.996094 "/></g></g></g><g fill="#ffffff" fill-opacity="1"><g transform="translate(26.214542, 48.440854)"><g><path d="M 1.777344 -3.28125 C 1.980469 -3.476562 2.289062 -3.570312 2.539062 -3.570312 C 2.898438 -3.570312 3.042969 -3.402344 3.042969 -3.066406 L 3.042969 -0.484375 C 3.042969 -0.175781 3.308594 0.0625 3.652344 0.0625 C 3.980469 0.0625 4.261719 -0.175781 4.261719 -0.484375 L 4.261719 -2.988281 C 4.261719 -3.898438 3.75 -4.535156 2.617188 -4.535156 C 2.316406 -4.535156 2.023438 -4.449219 1.777344 -4.296875 L 1.777344 -5.878906 C 1.777344 -6.1875 1.511719 -6.429688 1.167969 -6.429688 C 0.824219 -6.429688 0.566406 -6.164062 0.566406 -5.878906 L 0.566406 -0.484375 C 0.566406 -0.175781 0.832031 0.0625 1.175781 0.0625 C 1.519531 0.0625 1.777344 -0.175781 1.777344 -0.484375 Z M 1.777344 -3.28125 "/></g></g></g><g fill="#ffffff" fill-opacity="1"><g transform="translate(31.050392, 48.440854)"><g><path d="M 3.980469 -2.707031 C 3.980469 -3.898438 3.457031 -4.535156 2.175781 -4.535156 C 1.441406 -4.535156 0.664062 -4.324219 0.664062 -3.800781 C 0.664062 -3.582031 0.804688 -3.289062 1.175781 -3.289062 C 1.34375 -3.289062 1.441406 -3.351562 1.511719 -3.378906 C 1.6875 -3.457031 1.839844 -3.519531 2.085938 -3.519531 C 2.539062 -3.519531 2.757812 -3.324219 2.757812 -2.910156 L 2.757812 -2.625 C 2.527344 -2.695312 2.300781 -2.714844 2.058594 -2.714844 C 0.894531 -2.714844 0.308594 -2.261719 0.308594 -1.363281 L 0.308594 -1.335938 C 0.308594 -0.496094 0.859375 0.0625 1.882812 0.0625 C 2.378906 0.0625 2.75 -0.0703125 3.078125 -0.335938 C 3.28125 -0.0546875 3.5 0.0351562 3.828125 0.0351562 C 4.296875 0.0351562 4.464844 -0.140625 4.464844 -0.425781 C 4.464844 -0.609375 4.394531 -0.707031 4.261719 -0.761719 C 4.113281 -0.824219 3.980469 -0.796875 3.980469 -1.0625 Z M 2.128906 -1.855469 C 2.308594 -1.855469 2.539062 -1.832031 2.757812 -1.785156 L 2.757812 -1.148438 C 2.527344 -0.972656 2.300781 -0.917969 2.070312 -0.917969 C 1.6875 -0.917969 1.519531 -1.035156 1.519531 -1.328125 L 1.519531 -1.351562 C 1.519531 -1.617188 1.617188 -1.855469 2.128906 -1.855469 Z M 2.128906 -1.855469 "/></g></g></g><g fill="#ffffff" fill-opacity="1"><g transform="translate(35.665224, 48.440854)"><g><path d="M 0.566406 -1.839844 C 0.566406 -0.636719 0.917969 0.0351562 2.289062 0.0351562 C 2.730469 0.0351562 3.140625 -0.0351562 3.140625 -0.546875 C 3.140625 -0.875 2.972656 -1.027344 2.414062 -1.027344 C 2.394531 -1.027344 2.34375 -1.015625 2.261719 -1.015625 C 1.839844 -1.015625 1.785156 -1.246094 1.785156 -1.902344 L 1.785156 -3.234375 L 2.441406 -3.234375 C 2.765625 -3.234375 3.023438 -3.457031 3.023438 -3.757812 C 3.023438 -4.058594 2.765625 -4.289062 2.441406 -4.289062 L 1.785156 -4.289062 L 1.785156 -5.269531 C 1.785156 -5.5625 1.566406 -5.808594 1.175781 -5.808594 C 0.785156 -5.808594 0.566406 -5.570312 0.566406 -5.269531 Z M 0.566406 -1.839844 "/></g></g></g><g fill="#ffffff" fill-opacity="1"><g transform="translate(38.856707, 48.440854)"><g><path d="M 1.644531 -1.230469 L 3.527344 -1.230469 L 3.835938 -0.335938 C 3.925781 -0.0898438 4.207031 0.078125 4.4375 0.078125 C 4.800781 0.078125 5.074219 -0.148438 5.074219 -0.484375 C 5.074219 -0.53125 5.066406 -0.636719 5.046875 -0.679688 L 3.324219 -5.710938 C 3.199219 -6.066406 3.023438 -6.3125 2.597656 -6.3125 C 2.175781 -6.3125 2 -6.054688 1.882812 -5.710938 L 0.160156 -0.679688 C 0.140625 -0.636719 0.132812 -0.53125 0.132812 -0.484375 C 0.132812 -0.148438 0.425781 0.078125 0.769531 0.078125 C 0.980469 0.078125 1.265625 -0.078125 1.351562 -0.335938 Z M 3.210938 -2.238281 L 1.972656 -2.238281 L 2.441406 -3.75 C 2.519531 -4.003906 2.5625 -4.339844 2.597656 -4.617188 C 2.636719 -4.339844 2.679688 -4.003906 2.757812 -3.75 Z M 3.210938 -2.238281 "/></g></g></g><g fill="#ffffff" fill-opacity="1"><g transform="translate(44.063864, 48.440854)"><g><path d="M 2.582031 0.0546875 C 3.855469 0.0546875 4.269531 -0.734375 4.269531 -1.777344 L 4.269531 -2.804688 C 4.269531 -3.828125 3.679688 -4.535156 2.660156 -4.535156 C 2.191406 -4.535156 1.839844 -4.386719 1.414062 -4.148438 C 1.289062 -4.296875 1.140625 -4.394531 0.953125 -4.394531 C 0.671875 -4.394531 0.371094 -4.183594 0.371094 -3.855469 C 0.371094 -3.730469 0.425781 -3.660156 0.496094 -3.570312 C 0.566406 -3.464844 0.59375 -3.359375 0.59375 -3.15625 L 0.59375 1.335938 C 0.59375 1.625 0.8125 1.875 1.203125 1.875 C 1.589844 1.875 1.8125 1.636719 1.8125 1.335938 L 1.8125 -0.125 C 2.128906 0.0273438 2.34375 0.0546875 2.582031 0.0546875 Z M 1.8125 -3.15625 C 1.8125 -3.210938 1.804688 -3.261719 1.792969 -3.324219 C 2.070312 -3.449219 2.289062 -3.511719 2.476562 -3.511719 C 2.855469 -3.511719 3.050781 -3.261719 3.050781 -2.804688 L 3.050781 -1.777344 C 3.050781 -1.21875 2.890625 -0.953125 2.457031 -0.953125 C 2.300781 -0.953125 2.078125 -0.992188 1.8125 -1.070312 Z M 1.8125 -3.15625 "/></g></g></g><g fill="#ffffff" fill-opacity="1"><g transform="translate(48.73174, 48.440854)"><g><path d="M 2.582031 0.0546875 C 3.855469 0.0546875 4.269531 -0.734375 4.269531 -1.777344 L 4.269531 -2.804688 C 4.269531 -3.828125 3.679688 -4.535156 2.660156 -4.535156 C 2.191406 -4.535156 1.839844 -4.386719 1.414062 -4.148438 C 1.289062 -4.296875 1.140625 -4.394531 0.953125 -4.394531 C 0.671875 -4.394531 0.371094 -4.183594 0.371094 -3.855469 C 0.371094 -3.730469 0.425781 -3.660156 0.496094 -3.570312 C 0.566406 -3.464844 0.59375 -3.359375 0.59375 -3.15625 L 0.59375 1.335938 C 0.59375 1.625 0.8125 1.875 1.203125 1.875 C 1.589844 1.875 1.8125 1.636719 1.8125 1.335938 L 1.8125 -0.125 C 2.128906 0.0273438 2.34375 0.0546875 2.582031 0.0546875 Z M 1.8125 -3.15625 C 1.8125 -3.210938 1.804688 -3.261719 1.792969 -3.324219 C 2.070312 -3.449219 2.289062 -3.511719 2.476562 -3.511719 C 2.855469 -3.511719 3.050781 -3.261719 3.050781 -2.804688 L 3.050781 -1.777344 C 3.050781 -1.21875 2.890625 -0.953125 2.457031 -0.953125 C 2.300781 -0.953125 2.078125 -0.992188 1.8125 -1.070312 Z M 1.8125 -3.15625 "/></g></g></g></svg>