<svg xmlns="http://www.w3.org/2000/svg" xmlns:xlink="http://www.w3.org/1999/xlink" width="50" zoomAndPan="magnify" viewBox="0 0 37.5 37.499999" height="50" preserveAspectRatio="xMidYMid meet" version="1.0"><defs><g/><clipPath id="074773a9f9"><path d="M 9.890625 5.992188 L 26.914062 5.992188 L 26.914062 21.535156 L 9.890625 21.535156 Z M 9.890625 5.992188 " clip-rule="nonzero"/></clipPath></defs><g clip-path="url(#074773a9f9)"><path fill="#38b6ff" d="M 18.417969 14.230469 C 18.15625 14.230469 17.945312 14.019531 17.945312 13.757812 C 17.945312 13.496094 18.15625 13.285156 18.417969 13.285156 C 18.679688 13.285156 18.890625 13.496094 18.890625 13.757812 C 18.890625 14.019531 18.679688 14.230469 18.417969 14.230469 Z M 24.960938 8.226562 C 24.957031 8.226562 24.957031 8.226562 24.957031 8.222656 C 24.957031 8.527344 25 8.847656 25.089844 9.1875 C 25.914062 9.878906 26.410156 10.757812 26.410156 11.707031 C 26.410156 12.789062 25.773438 13.773438 24.738281 14.496094 C 24.230469 14.851562 23.628906 15.144531 22.960938 15.351562 C 22.757812 14.296875 22.066406 13.359375 21.054688 12.652344 C 19.875 11.824219 18.246094 11.3125 16.457031 11.3125 C 15.84375 11.3125 15.246094 11.375 14.683594 11.488281 C 14.761719 10.492188 15.382812 9.589844 16.34375 8.917969 C 17.414062 8.171875 18.898438 7.707031 20.542969 7.707031 C 21.03125 7.707031 21.507812 7.75 21.960938 7.828125 C 21.988281 7.804688 22.015625 7.785156 22.042969 7.765625 C 22.300781 7.589844 22.5625 7.433594 22.839844 7.304688 C 22.851562 7.296875 22.863281 7.292969 22.878906 7.285156 C 22.949219 7.25 23.019531 7.21875 23.09375 7.1875 C 23.804688 6.894531 24.574219 6.746094 25.40625 6.746094 C 25.136719 7.140625 24.988281 7.578125 24.960938 8.066406 C 24.960938 8.117188 24.957031 8.171875 24.960938 8.226562 Z M 12.042969 19.496094 C 12.042969 19.191406 12 18.871094 11.910156 18.53125 C 11.085938 17.84375 10.589844 16.964844 10.589844 16.011719 C 10.589844 14.933594 11.230469 13.945312 12.261719 13.222656 C 12.769531 12.867188 13.371094 12.578125 14.039062 12.371094 C 14.242188 13.425781 14.933594 14.363281 15.945312 15.070312 C 17.128906 15.894531 18.753906 16.40625 20.542969 16.40625 C 21.15625 16.40625 21.753906 16.347656 22.316406 16.234375 C 22.238281 17.226562 21.617188 18.128906 20.65625 18.800781 C 19.585938 19.550781 18.105469 20.011719 16.457031 20.011719 C 15.96875 20.011719 15.496094 19.972656 15.039062 19.894531 C 15.011719 19.914062 14.984375 19.933594 14.957031 19.953125 C 14.703125 20.132812 14.4375 20.285156 14.160156 20.417969 C 14.148438 20.421875 14.136719 20.429688 14.121094 20.433594 C 14.054688 20.46875 13.980469 20.5 13.90625 20.53125 C 13.195312 20.828125 12.425781 20.976562 11.59375 20.972656 C 11.863281 20.582031 12.011719 20.140625 12.039062 19.65625 C 12.042969 19.601562 12.042969 19.546875 12.042969 19.496094 Z M 16.953125 13.285156 C 17.214844 13.285156 17.425781 13.496094 17.425781 13.757812 C 17.425781 14.019531 17.214844 14.230469 16.953125 14.230469 C 16.691406 14.230469 16.480469 14.019531 16.480469 13.757812 C 16.480469 13.496094 16.691406 13.285156 16.953125 13.285156 Z M 19.882812 14.230469 C 19.621094 14.230469 19.410156 14.019531 19.410156 13.757812 C 19.410156 13.496094 19.621094 13.285156 19.882812 13.285156 C 20.144531 13.285156 20.355469 13.496094 20.355469 13.757812 C 20.355469 14.019531 20.144531 14.230469 19.882812 14.230469 Z M 15.128906 20.613281 C 15.558594 20.679688 16.003906 20.710938 16.457031 20.710938 C 18.246094 20.710938 19.875 20.199219 21.054688 19.375 C 22.257812 18.53125 23.007812 17.363281 23.027344 16.058594 C 23.820312 15.828125 24.539062 15.488281 25.140625 15.070312 C 26.355469 14.214844 27.109375 13.027344 27.109375 11.707031 C 27.109375 10.617188 26.597656 9.617188 25.734375 8.824219 C 25.730469 8.816406 25.730469 8.8125 25.730469 8.804688 C 25.636719 8.367188 25.628906 7.964844 25.746094 7.605469 C 25.859375 7.25 26.105469 6.925781 26.511719 6.625 C 26.667969 6.511719 26.699219 6.292969 26.585938 6.136719 C 26.511719 6.035156 26.390625 5.984375 26.273438 5.996094 C 25.191406 6.042969 24.316406 6.132812 23.601562 6.300781 C 22.882812 6.472656 22.320312 6.730469 21.871094 7.105469 C 21.441406 7.042969 20.996094 7.007812 20.542969 7.007812 C 18.753906 7.007812 17.128906 7.519531 15.945312 8.347656 C 14.742188 9.1875 13.992188 10.359375 13.972656 11.660156 C 13.179688 11.890625 12.464844 12.230469 11.863281 12.652344 C 10.644531 13.503906 9.890625 14.691406 9.890625 16.011719 C 9.890625 17.101562 10.402344 18.101562 11.269531 18.898438 C 11.269531 18.902344 11.269531 18.90625 11.269531 18.914062 C 11.367188 19.355469 11.371094 19.757812 11.253906 20.113281 C 11.140625 20.46875 10.898438 20.792969 10.488281 21.09375 C 10.332031 21.207031 10.300781 21.425781 10.414062 21.582031 C 10.488281 21.683594 10.609375 21.734375 10.726562 21.722656 C 11.8125 21.675781 12.683594 21.589844 13.398438 21.417969 C 14.121094 21.246094 14.679688 20.992188 15.128906 20.613281 Z M 15.128906 20.613281 " fill-opacity="1" fill-rule="evenodd"/></g><g fill="#38b6ff" fill-opacity="1"><g transform="translate(6.355805, 28.581113)"><g><path d="M 1.183594 -3.054688 C 1.183594 -3.632812 1.382812 -4 1.992188 -4 C 2.207031 -4 2.382812 -3.945312 2.554688 -3.835938 L 2.621094 -3.796875 C 2.707031 -3.742188 2.757812 -3.695312 2.910156 -3.695312 C 3.167969 -3.695312 3.355469 -3.882812 3.355469 -4.101562 C 3.355469 -4.492188 2.675781 -4.824219 1.957031 -4.824219 C 0.777344 -4.824219 0.238281 -4.121094 0.238281 -3.054688 L 0.238281 -1.714844 C 0.238281 -0.648438 0.777344 0.0546875 1.957031 0.0546875 C 2.675781 0.0546875 3.355469 -0.277344 3.355469 -0.667969 C 3.355469 -0.886719 3.167969 -1.074219 2.910156 -1.074219 C 2.757812 -1.074219 2.707031 -1.027344 2.621094 -0.972656 L 2.554688 -0.933594 C 2.382812 -0.824219 2.207031 -0.769531 1.992188 -0.769531 C 1.382812 -0.769531 1.183594 -1.136719 1.183594 -1.714844 Z M 1.183594 -3.054688 "/></g></g></g><g fill="#38b6ff" fill-opacity="1"><g transform="translate(9.881439, 28.581113)"><g><path d="M 1.359375 -2.507812 C 1.511719 -2.65625 1.75 -2.730469 1.9375 -2.730469 C 2.214844 -2.730469 2.324219 -2.601562 2.324219 -2.34375 L 2.324219 -0.371094 C 2.324219 -0.136719 2.527344 0.046875 2.789062 0.046875 C 3.039062 0.046875 3.253906 -0.136719 3.253906 -0.371094 L 3.253906 -2.28125 C 3.253906 -2.980469 2.863281 -3.464844 2 -3.464844 C 1.769531 -3.464844 1.546875 -3.398438 1.359375 -3.28125 L 1.359375 -4.492188 C 1.359375 -4.726562 1.15625 -4.910156 0.890625 -4.910156 C 0.628906 -4.910156 0.433594 -4.707031 0.433594 -4.492188 L 0.433594 -0.371094 C 0.433594 -0.136719 0.636719 0.046875 0.898438 0.046875 C 1.160156 0.046875 1.359375 -0.136719 1.359375 -0.371094 Z M 1.359375 -2.507812 "/></g></g></g><g fill="#38b6ff" fill-opacity="1"><g transform="translate(13.575925, 28.581113)"><g><path d="M 3.039062 -2.066406 C 3.039062 -2.980469 2.640625 -3.464844 1.660156 -3.464844 C 1.101562 -3.464844 0.507812 -3.304688 0.507812 -2.90625 C 0.507812 -2.734375 0.613281 -2.511719 0.898438 -2.511719 C 1.027344 -2.511719 1.101562 -2.558594 1.15625 -2.582031 C 1.289062 -2.640625 1.40625 -2.6875 1.59375 -2.6875 C 1.9375 -2.6875 2.109375 -2.539062 2.109375 -2.222656 L 2.109375 -2.007812 C 1.933594 -2.058594 1.757812 -2.074219 1.574219 -2.074219 C 0.683594 -2.074219 0.238281 -1.730469 0.238281 -1.039062 L 0.238281 -1.019531 C 0.238281 -0.378906 0.65625 0.046875 1.4375 0.046875 C 1.816406 0.046875 2.101562 -0.0546875 2.351562 -0.257812 C 2.507812 -0.0390625 2.675781 0.0273438 2.925781 0.0273438 C 3.28125 0.0273438 3.410156 -0.109375 3.410156 -0.324219 C 3.410156 -0.464844 3.355469 -0.539062 3.253906 -0.582031 C 3.140625 -0.628906 3.039062 -0.609375 3.039062 -0.8125 Z M 1.628906 -1.417969 C 1.761719 -1.417969 1.9375 -1.398438 2.109375 -1.363281 L 2.109375 -0.878906 C 1.933594 -0.742188 1.757812 -0.703125 1.582031 -0.703125 C 1.289062 -0.703125 1.160156 -0.789062 1.160156 -1.011719 L 1.160156 -1.035156 C 1.160156 -1.234375 1.234375 -1.417969 1.628906 -1.417969 Z M 1.628906 -1.417969 "/></g></g></g><g fill="#38b6ff" fill-opacity="1"><g transform="translate(17.101558, 28.581113)"><g><path d="M 0.433594 -1.40625 C 0.433594 -0.488281 0.703125 0.0273438 1.75 0.0273438 C 2.085938 0.0273438 2.398438 -0.0273438 2.398438 -0.417969 C 2.398438 -0.667969 2.269531 -0.785156 1.84375 -0.785156 C 1.832031 -0.785156 1.789062 -0.777344 1.730469 -0.777344 C 1.40625 -0.777344 1.363281 -0.953125 1.363281 -1.453125 L 1.363281 -2.472656 L 1.863281 -2.472656 C 2.113281 -2.472656 2.308594 -2.640625 2.308594 -2.871094 C 2.308594 -3.101562 2.113281 -3.277344 1.863281 -3.277344 L 1.363281 -3.277344 L 1.363281 -4.027344 C 1.363281 -4.25 1.195312 -4.4375 0.898438 -4.4375 C 0.601562 -4.4375 0.433594 -4.253906 0.433594 -4.027344 Z M 0.433594 -1.40625 "/></g></g></g><g fill="#38b6ff" fill-opacity="1"><g transform="translate(19.539784, 28.581113)"><g><path d="M 1.257812 -0.9375 L 2.695312 -0.9375 L 2.929688 -0.257812 C 3 -0.0664062 3.214844 0.0625 3.390625 0.0625 C 3.667969 0.0625 3.878906 -0.113281 3.878906 -0.371094 C 3.878906 -0.40625 3.871094 -0.488281 3.855469 -0.519531 L 2.539062 -4.363281 C 2.445312 -4.632812 2.308594 -4.824219 1.984375 -4.824219 C 1.660156 -4.824219 1.527344 -4.628906 1.4375 -4.363281 L 0.121094 -0.519531 C 0.109375 -0.488281 0.101562 -0.40625 0.101562 -0.371094 C 0.101562 -0.113281 0.324219 0.0625 0.585938 0.0625 C 0.75 0.0625 0.964844 -0.0625 1.035156 -0.257812 Z M 2.453125 -1.707031 L 1.507812 -1.707031 L 1.863281 -2.863281 C 1.925781 -3.058594 1.957031 -3.316406 1.984375 -3.527344 C 2.011719 -3.316406 2.046875 -3.058594 2.109375 -2.863281 Z M 2.453125 -1.707031 "/></g></g></g><g fill="#38b6ff" fill-opacity="1"><g transform="translate(23.517941, 28.581113)"><g><path d="M 1.972656 0.0390625 C 2.945312 0.0390625 3.261719 -0.5625 3.261719 -1.359375 L 3.261719 -2.140625 C 3.261719 -2.925781 2.808594 -3.464844 2.035156 -3.464844 C 1.675781 -3.464844 1.40625 -3.351562 1.082031 -3.167969 C 0.984375 -3.28125 0.871094 -3.355469 0.730469 -3.355469 C 0.511719 -3.355469 0.285156 -3.195312 0.285156 -2.945312 C 0.285156 -2.851562 0.324219 -2.796875 0.378906 -2.730469 C 0.433594 -2.648438 0.453125 -2.566406 0.453125 -2.410156 L 0.453125 1.019531 C 0.453125 1.242188 0.621094 1.433594 0.917969 1.433594 C 1.214844 1.433594 1.382812 1.25 1.382812 1.019531 L 1.382812 -0.09375 C 1.628906 0.0195312 1.789062 0.0390625 1.972656 0.0390625 Z M 1.382812 -2.410156 C 1.382812 -2.453125 1.378906 -2.492188 1.371094 -2.539062 C 1.582031 -2.632812 1.75 -2.683594 1.890625 -2.683594 C 2.183594 -2.683594 2.332031 -2.492188 2.332031 -2.140625 L 2.332031 -1.359375 C 2.332031 -0.933594 2.207031 -0.730469 1.878906 -0.730469 C 1.757812 -0.730469 1.585938 -0.757812 1.382812 -0.816406 Z M 1.382812 -2.410156 "/></g></g></g><g fill="#38b6ff" fill-opacity="1"><g transform="translate(27.084098, 28.581113)"><g><path d="M 1.972656 0.0390625 C 2.945312 0.0390625 3.261719 -0.5625 3.261719 -1.359375 L 3.261719 -2.140625 C 3.261719 -2.925781 2.808594 -3.464844 2.035156 -3.464844 C 1.675781 -3.464844 1.40625 -3.351562 1.082031 -3.167969 C 0.984375 -3.28125 0.871094 -3.355469 0.730469 -3.355469 C 0.511719 -3.355469 0.285156 -3.195312 0.285156 -2.945312 C 0.285156 -2.851562 0.324219 -2.796875 0.378906 -2.730469 C 0.433594 -2.648438 0.453125 -2.566406 0.453125 -2.410156 L 0.453125 1.019531 C 0.453125 1.242188 0.621094 1.433594 0.917969 1.433594 C 1.214844 1.433594 1.382812 1.25 1.382812 1.019531 L 1.382812 -0.09375 C 1.628906 0.0195312 1.789062 0.0390625 1.972656 0.0390625 Z M 1.382812 -2.410156 C 1.382812 -2.453125 1.378906 -2.492188 1.371094 -2.539062 C 1.582031 -2.632812 1.75 -2.683594 1.890625 -2.683594 C 2.183594 -2.683594 2.332031 -2.492188 2.332031 -2.140625 L 2.332031 -1.359375 C 2.332031 -0.933594 2.207031 -0.730469 1.878906 -0.730469 C 1.757812 -0.730469 1.585938 -0.757812 1.382812 -0.816406 Z M 1.382812 -2.410156 "/></g></g></g></svg>